# xmcd
#
# Track frame offsets:
#	150
#	13829
#	28660
#	47915
#	73584
#	86088
#	105815
#	122386
#	147844
#	165102
#
# Disc length: 2470 seconds
#
# Revision: 1
# Processed by: cddbd v1.5.2PL0 Copyright (c) Steve Scherf et al.
# Submitted via: audiograbber 1.83.01
#
DISCID=7409a40a
DTITLE=Don P and the Blue Jags - First Album
DYEAR=2012
DGENRE=Blues
TTITLE0=That's What I'm Living For
TTITLE1=What A Thrill
TTITLE2=Blues Satellite
TTITLE3=Little Honey
TTITLE4=It Feels So Fine
TTITLE5=Beautiful Day
TTITLE6=What Happened Is
TTITLE7=She Was My Star
TTITLE8=My Love Goes Bad
TTITLE9=My Soul Is Frozen
EXTD=
EXTT0=
EXTT1=
EXTT2=
EXTT3=
EXTT4=
EXTT5=
EXTT6=
EXTT7=
EXTT8=
EXTT9=
PLAYORDER=
